<svg width="21" height="30" viewBox="0 0 21 30" fill="none" xmlns="http://www.w3.org/2000/svg">
<path d="M11.2933 7.96504C12.11 7.64724 12.7167 6.77328 12.81 5.79338C12.8683 5.17101 12.7517 4.58837 12.4833 4.11166L10.99 1.17197C10.7683 0.734993 10.2083 0.734993 9.975 1.17197L8.48167 4.11166C8.28333 4.50892 8.16667 4.97238 8.16667 5.47558C8.16667 7.2235 9.68333 8.58741 11.2933 7.96504ZM15.785 21.2599L14.6183 19.9357L13.3583 21.3526C11.8417 23.074 9.18167 23.0872 7.65333 21.3526L6.405 19.9357L5.13333 21.3526C4.375 22.2133 3.36 22.69 2.28667 22.69C1.435 22.69 0.653333 22.3854 0 21.8822V26.6625C0 28.1191 1.05 29.3109 2.33333 29.3109H18.6667C19.95 29.3109 21 28.1191 21 26.6625V21.8822C20.125 22.5576 19.005 22.8754 17.8033 22.5708C17.0333 22.3854 16.345 21.8955 15.785 21.2599ZM17.5 12.0965H11.6667V10.7723C11.6667 10.044 11.1417 9.44813 10.5 9.44813C9.85833 9.44813 9.33333 10.044 9.33333 10.7723V12.0965H3.5C1.56333 12.0965 0 13.8709 0 16.0691V18.0024C0 19.1279 0.583333 20.2138 1.52833 20.5713C2.38 20.8891 3.30167 20.6507 3.89667 19.9622L6.39333 17.1416L8.87833 19.9622C9.765 20.9685 11.2233 20.9685 12.11 19.9622L14.6067 17.1416L17.0917 19.9622C17.5933 20.5316 18.2933 20.7964 19.0167 20.6905C20.1717 20.5183 20.9883 19.2868 20.9883 17.9626V16.0823C21 13.8709 19.4367 12.0965 17.5 12.0965Z" fill="#777777"/>
</svg>
