<svg width="24" height="24" viewBox="0 0 24 24" fill="none" xmlns="http://www.w3.org/2000/svg">
<path opacity="0.2" d="M0.439345 0.439324C1.02513 -0.146441 1.97465 -0.146441 2.56044 0.439324L11.6171 9.49596L20.6747 0.4403L20.789 0.336785C21.3781 -0.143631 22.2466 -0.108829 22.7958 0.4403C23.3449 0.98944 23.3798 1.85799 22.8993 2.44714L22.7958 2.56139L13.7391 11.618L22.7958 20.6747L22.8993 20.788C23.3799 21.3771 23.345 22.2466 22.7958 22.7958C22.2466 23.3447 21.378 23.3788 20.789 22.8983L20.6747 22.7958L11.6181 13.7391L2.56044 22.7967C1.97471 23.3822 1.02507 23.3822 0.439345 22.7967C-0.146448 22.211 -0.146448 21.2605 0.439345 20.6747L9.49599 11.6171L0.439345 2.56042C-0.146448 1.97464 -0.146448 1.0251 0.439345 0.439324Z" fill="#777777"/>
</svg>
