<svg width="23" height="23" viewBox="0 0 23 23" fill="none" xmlns="http://www.w3.org/2000/svg">
<path d="M0.546788 0.622988C1.29869 -0.185837 2.54297 -0.210273 3.32608 0.568301L11.1659 8.36713L18.7626 0.588808L18.914 0.450137C19.6894 -0.197039 20.8271 -0.144554 21.5429 0.603457C22.2588 1.35154 22.2975 2.52958 21.664 3.32514L21.5282 3.47943L14.0009 11.1874L21.5077 18.6542L21.6454 18.8056C22.2907 19.5918 22.2694 20.7708 21.5644 21.5292C20.8594 22.2877 19.7212 22.3559 18.9364 21.7197L18.7851 21.5839L11.2079 14.0468L4.04679 21.3818C3.27509 22.1721 2.0302 22.1661 1.26651 21.3681C0.502869 20.5701 0.50956 19.2824 1.28116 18.4921L8.37394 11.2275L0.603428 3.49896C-0.179695 2.72 -0.205216 1.43204 0.546788 0.622988Z" fill="#D9D9D9"/>
</svg>
