<svg width="40" height="40" viewBox="0 0 40 40" fill="none" xmlns="http://www.w3.org/2000/svg">
<path d="M37.9926 20.0056C37.4624 20.0056 36.9538 20.2162 36.5788 20.5912C36.2039 20.9661 35.9932 21.4747 35.9932 22.005V34.0015C35.9932 34.5318 35.7826 35.0403 35.4076 35.4153C35.0326 35.7903 34.5241 36.0009 33.9938 36.0009H6.00192C5.47164 36.0009 4.96308 35.7903 4.58812 35.4153C4.21316 35.0403 4.0025 34.5318 4.0025 34.0015V6.00961C4.0025 5.47933 4.21316 4.97077 4.58812 4.59581C4.96308 4.22084 5.47164 4.01019 6.00192 4.01019H17.9984C18.5287 4.01019 19.0373 3.79954 19.4122 3.42457C19.7872 3.04961 19.9979 2.54105 19.9979 2.01077C19.9979 1.48049 19.7872 0.97193 19.4122 0.596966C19.0373 0.222002 18.5287 0.0113492 17.9984 0.0113492H6.00192C4.41109 0.0113492 2.8854 0.643307 1.76051 1.7682C0.63562 2.89309 0.00366211 4.41877 0.00366211 6.00961V34.0015C0.00366211 35.5923 0.63562 37.118 1.76051 38.2429C2.8854 39.3678 4.41109 39.9998 6.00192 39.9998H33.9938C35.5846 39.9998 37.1103 39.3678 38.2352 38.2429C39.3601 37.118 39.9921 35.5923 39.9921 34.0015V22.005C39.9921 21.4747 39.7814 20.9661 39.4065 20.5912C39.0315 20.2162 38.5229 20.0056 37.9926 20.0056ZM8.00134 21.5251V30.0027C8.00134 30.5329 8.212 31.0415 8.58696 31.4165C8.96192 31.7914 9.47048 32.0021 10.0008 32.0021H18.4783C18.7414 32.0036 19.0023 31.9532 19.2459 31.8537C19.4895 31.7542 19.7111 31.6075 19.8979 31.4222L33.7339 17.5663L39.4122 12.0079C39.5996 11.822 39.7484 11.6009 39.8499 11.3572C39.9514 11.1136 40.0037 10.8522 40.0037 10.5883C40.0037 10.3243 39.9514 10.063 39.8499 9.81935C39.7484 9.5757 39.5996 9.35457 39.4122 9.16869L30.9347 0.591181C30.7488 0.403778 30.5277 0.255033 30.284 0.153525C30.0404 0.0520172 29.7791 -0.000244141 29.5151 -0.000244141C29.2512 -0.000244141 28.9898 0.0520172 28.7462 0.153525C28.5025 0.255033 28.2814 0.403778 28.0955 0.591181L22.4572 6.24954L8.58117 20.1055C8.39587 20.2923 8.24926 20.5139 8.14976 20.7575C8.05026 21.0011 7.99982 21.262 8.00134 21.5251ZM29.5151 4.82995L35.1735 10.4883L32.3343 13.3275L26.6759 7.66913L29.5151 4.82995ZM12.0002 22.3449L23.8567 10.4883L29.5151 16.1467L17.6585 28.0032H12.0002V22.3449Z" fill="#D9D9D9"/>
</svg>
