<svg width="25" height="26" viewBox="0 0 25 26" fill="none" xmlns="http://www.w3.org/2000/svg">
<path d="M12.225 0.585938C9.80711 0.585937 7.44353 1.30292 5.43315 2.64622C3.42276 3.98951 1.85586 5.89879 0.930576 8.13262C0.00529689 10.3664 -0.236798 12.8245 0.234905 15.1959C0.706608 17.5673 1.87092 19.7456 3.58062 21.4553C5.29031 23.165 7.46859 24.3293 9.84 24.801C12.2114 25.2727 14.6695 25.0306 16.9033 24.1053C19.1371 23.18 21.0464 21.6131 22.3897 19.6027C23.733 17.5924 24.4499 15.2288 24.4499 12.8109C24.4499 11.2055 24.1337 9.61582 23.5194 8.13262C22.905 6.64941 22.0045 5.30174 20.8693 4.16655C19.7341 3.03136 18.3865 2.13087 16.9033 1.51651C15.4201 0.902146 13.8304 0.585938 12.225 0.585938ZM12.225 3.03093C12.9616 3.03574 13.6955 3.12184 14.4132 3.28766C14.2007 3.76736 13.8732 4.18725 13.4597 4.51015C13.1908 4.71798 12.8974 4.88913 12.604 5.0725C11.6751 5.52981 10.892 6.23674 10.3423 7.11407C9.74017 8.36905 9.47877 9.76036 9.58438 11.1483C9.58438 12.8109 9.58438 13.7889 8.42301 14.6569C6.74819 15.965 4.19317 15.2315 2.60392 14.5713C2.50003 13.9902 2.44685 13.4012 2.445 12.8109C2.445 10.2171 3.47539 7.72952 5.30949 5.89542C7.14359 4.06132 9.63117 3.03093 12.225 3.03093ZM18.203 20.5371C17.9915 20.0489 17.7336 19.5822 17.4328 19.1434C17.2983 18.9478 17.1639 18.7522 17.0416 18.5444C16.5648 17.7131 16.736 17.3219 17.5062 16.0994L17.6284 15.8916C18.1245 14.982 18.3692 13.9566 18.3375 12.9209C18.3362 12.5109 18.3731 12.1017 18.4475 11.6984C18.6431 10.806 20.538 10.5615 21.7116 10.4759C22.1859 12.3201 22.1073 14.263 21.4856 16.0629C20.8639 17.8627 19.7266 19.4399 18.2152 20.5982L18.203 20.5371Z" fill="#777777"/>
</svg>
