<svg width="44" height="43" viewBox="0 0 44 43" fill="none" xmlns="http://www.w3.org/2000/svg">
<path d="M22 1.5C10.9543 1.5 2 10.4543 2 21.5C2 32.5456 10.9543 41.5 22 41.5C33.0456 41.5 42 32.5456 42 21.5C42 10.4543 33.0456 1.5 22 1.5Z" stroke="#D9D9D9" stroke-width="3" stroke-linecap="round" stroke-linejoin="round"/>
<path d="M6.54199 34.1914C6.54199 34.1914 11 28.5 22 28.5C33 28.5 37.4582 34.1914 37.4582 34.1914" stroke="#D9D9D9" stroke-width="3" stroke-linecap="round" stroke-linejoin="round"/>
<path d="M22 21.5C25.3138 21.5 28 18.8138 28 15.5C28 12.1863 25.3138 9.5 22 9.5C18.6862 9.5 16 12.1863 16 15.5C16 18.8138 18.6862 21.5 22 21.5Z" stroke="#D9D9D9" stroke-width="3" stroke-linecap="round" stroke-linejoin="round"/>
</svg>
