<svg width="45" height="40" viewBox="0 0 45 40" fill="none" xmlns="http://www.w3.org/2000/svg">
<path d="M40.8974 4.23747C38.5117 1.84078 35.3493 0.377979 31.9814 0.113299C28.6135 -0.15138 25.2621 0.799513 22.5327 2.79421C19.6692 0.660084 16.1051 -0.307632 12.558 0.0859391C9.01094 0.47951 5.74444 2.20513 3.4163 4.91531C1.08815 7.62549 -0.128695 11.1189 0.0107924 14.6921C0.15028 18.2652 1.63574 21.6527 4.16805 24.1724L18.1441 38.1991C19.3144 39.3532 20.8907 40 22.5327 40C24.1748 40 25.751 39.3532 26.9213 38.1991L40.8974 24.1724C43.5251 21.5233 45 17.94 45 14.2049C45 10.4699 43.5251 6.88659 40.8974 4.23747ZM37.7241 21.0604L23.748 35.0645C23.589 35.2254 23.3997 35.3531 23.1911 35.4403C22.9825 35.5275 22.7587 35.5724 22.5327 35.5724C22.3067 35.5724 22.0829 35.5275 21.8743 35.4403C21.6657 35.3531 21.4764 35.2254 21.3174 35.0645L7.34135 20.9928C5.57636 19.185 4.58803 16.7565 4.58803 14.2275C4.58803 11.6985 5.57636 9.27004 7.34135 7.46224C9.13991 5.68295 11.5656 4.68526 14.0931 4.68526C16.6205 4.68526 19.0462 5.68295 20.8448 7.46224C21.054 7.67361 21.3029 7.84137 21.5772 7.95586C21.8514 8.07035 22.1456 8.12929 22.4427 8.12929C22.7398 8.12929 23.034 8.07035 23.3082 7.95586C23.5825 7.84137 23.8314 7.67361 24.0406 7.46224C25.8392 5.68295 28.2649 4.68526 30.7923 4.68526C33.3198 4.68526 35.7455 5.68295 37.544 7.46224C39.3333 9.24635 40.3541 11.6616 40.3877 14.1907C40.4214 16.7198 39.4652 19.1615 37.7241 20.9928V21.0604Z" fill="#D9D9D9"/>
</svg>
