<svg width="45" height="40" viewBox="0 0 45 40" fill="none" xmlns="http://www.w3.org/2000/svg">
<path d="M12.5577 0.0859545C16.1047 -0.307617 19.6698 0.659833 22.5333 2.79396C25.2626 0.799471 28.6138 -0.151368 31.9815 0.113298C35.3494 0.377977 38.5118 1.84068 40.8975 4.23732C43.5252 6.88645 45.0001 10.4701 45.0001 14.2051C45 17.9401 43.5252 21.5238 40.8975 24.1729L26.9209 38.1992C25.7507 39.353 24.175 39.9999 22.5333 40C20.8913 40 19.3149 39.3532 18.1446 38.1992L4.16802 24.1729C1.63579 21.6533 0.15035 18.2655 0.0107942 14.6924C-0.128694 11.1192 1.08793 7.62523 3.41607 4.91506C5.74412 2.20499 9.01077 0.479617 12.5577 0.0859545Z" fill="#D9D9D9"/>
</svg>
