<svg width="40" height="27" viewBox="0 0 40 27" fill="none" xmlns="http://www.w3.org/2000/svg">
<path d="M20 9.5C22.4853 9.5 24.5 11.2909 24.5 13.5C24.5 15.7091 22.4853 17.5 20 17.5C17.5147 17.5 15.5 15.7091 15.5 13.5C15.5 11.2909 17.5147 9.5 20 9.5Z" fill="#D9D9D9"/>
<path fill-rule="evenodd" clip-rule="evenodd" d="M20 0C27.0089 1.50561e-07 33.7259 4.4262 39.6982 12.5977C39.7317 12.642 39.7621 12.6881 39.79 12.7354C39.7984 12.7494 39.8056 12.7641 39.8135 12.7783C39.8524 12.8493 39.8863 12.9224 39.9131 12.998C39.9211 13.0206 39.9277 13.0436 39.9346 13.0664C39.9421 13.0913 39.9489 13.1164 39.9551 13.1416C39.9626 13.172 39.9681 13.2027 39.9736 13.2334C39.9762 13.2477 39.9793 13.262 39.9814 13.2764C39.9864 13.3092 39.9895 13.342 39.9922 13.375C39.9935 13.3907 39.9962 13.4062 39.9971 13.4219C39.9984 13.4479 39.9981 13.474 39.998 13.5C39.9981 13.5257 39.9984 13.5514 39.9971 13.5771C39.9966 13.5853 39.9957 13.5934 39.9951 13.6016C39.9924 13.6421 39.9875 13.6823 39.9814 13.7227C39.9793 13.7371 39.9762 13.7513 39.9736 13.7656C39.9681 13.7963 39.9625 13.827 39.9551 13.8574C39.9489 13.8827 39.9421 13.9077 39.9346 13.9326C39.9283 13.9535 39.9223 13.9744 39.915 13.9951C39.8879 14.0728 39.8534 14.1479 39.8135 14.2207C39.8056 14.235 39.7984 14.2496 39.79 14.2637C39.7621 14.311 39.7316 14.357 39.6982 14.4014C33.7258 22.5732 27.0091 27 20 27C13.2051 27 6.68427 22.8402 0.850586 15.1406L0.316406 14.4219C0.309228 14.4127 0.302839 14.4029 0.295898 14.3936L0.289062 14.3848L0.277344 14.3682C0.255011 14.3367 0.234535 14.3043 0.214844 14.2715L0.204102 14.2559C0.195838 14.2417 0.188416 14.2272 0.180664 14.2129C0.171797 14.1965 0.163499 14.1798 0.155273 14.1631C0.143272 14.1388 0.131676 14.1145 0.121094 14.0898C0.112823 14.0705 0.105091 14.0509 0.0976562 14.0312C0.0889324 14.0083 0.0807752 13.9852 0.0732422 13.9619C0.067063 13.9428 0.0610677 13.9236 0.0556641 13.9043C0.0492251 13.8813 0.0433885 13.8582 0.0380859 13.835C0.0330396 13.8129 0.0284634 13.7908 0.0244141 13.7686C0.0198914 13.7436 0.0169085 13.7184 0.0136719 13.6934C0.0116329 13.6777 0.00936155 13.6622 0.0078125 13.6465C0.00490803 13.6165 0.00305273 13.5866 0.00195312 13.5566C0.0016628 13.5491 0.000178259 13.5417 0 13.5342V13.4658C0.000232375 13.456 0.00153036 13.4463 0.00195312 13.4365C0.00333783 13.4029 0.00611408 13.3695 0.00976562 13.3359C0.0111386 13.3235 0.0129682 13.3112 0.0146484 13.2988C0.0177109 13.276 0.0202891 13.2532 0.0244141 13.2305C0.0263767 13.2197 0.028078 13.2089 0.0302734 13.1982L0.0458984 13.1299C0.0488903 13.1181 0.052377 13.1065 0.0556641 13.0947C0.0610788 13.0754 0.0670523 13.0562 0.0732422 13.0371C0.0811037 13.0129 0.0894792 12.9888 0.0986328 12.9648C0.105753 12.9462 0.113218 12.9276 0.121094 12.9092C0.126834 12.8958 0.132516 12.8824 0.138672 12.8691L0.165039 12.8164C0.170206 12.8063 0.175259 12.7961 0.180664 12.7861C0.188289 12.7721 0.195984 12.758 0.204102 12.7441L0.216797 12.7246C0.235974 12.6929 0.255687 12.6613 0.277344 12.6309L0.289062 12.6152L0.298828 12.6006C0.304676 12.5928 0.310392 12.5849 0.316406 12.5771L0.850586 11.8594C6.68427 4.15978 13.2051 0 20 0ZM20 7.5C16.6381 7.5 13.5 9.97134 13.5 13.5C13.5 17.0287 16.6381 19.5 20 19.5C23.3619 19.5 26.5 17.0287 26.5 13.5C26.5 9.97134 23.3619 7.5 20 7.5Z" fill="#D9D9D9"/>
</svg>
